<svg version="1.1" id="Layer_1" xmlns="http://www.w3.org/2000/svg" xmlns:xlink="http://www.w3.org/1999/xlink" x="0px" y="0px"
	 width="100%" viewBox="0 0 752 640" enable-background="new 0 0 752 640" xml:space="preserve">
<path fill="#000000" opacity="1.000000" stroke="none" 
	d="
M406.981415,251.729065 
	C413.465820,253.539764 418.942993,256.725525 425.084045,259.557098 
	C426.373993,255.649475 427.467957,252.033127 428.753784,248.486343 
	C444.621246,204.716995 476.010651,178.183182 520.520325,166.707397 
	C561.833801,156.055679 598.742371,166.380798 631.525940,192.342957 
	C653.374634,209.645523 667.551941,232.243469 673.249084,259.770233 
	C673.905762,262.943176 674.813782,264.237427 678.406738,263.879547 
	C691.847717,262.540710 705.350464,262.525543 718.846680,262.810333 
	C730.104309,263.047882 734.412903,268.451843 732.069153,279.262054 
	C730.879822,284.747864 727.052673,287.346466 721.818054,285.814697 
	C707.706482,281.685272 693.433167,283.339722 679.161255,284.313354 
	C675.903381,284.535583 676.293091,286.837555 676.169189,289.007080 
	C675.389526,302.660828 674.106812,316.244934 669.321777,329.205536 
	C651.395691,377.759827 617.124268,408.493073 565.971252,415.515045 
	C515.301270,422.470703 473.249268,404.255737 443.637756,361.228516 
	C430.701233,342.430939 424.323212,321.233887 422.573792,298.535065 
	C422.150635,293.044128 421.700653,287.567047 421.971130,282.079712 
	C422.178406,277.873535 420.322021,275.212677 416.868774,273.138855 
	C409.328491,268.610687 401.245789,265.591980 392.518860,264.702240 
	C376.541565,263.073364 360.993469,263.710999 346.675079,272.623413 
	C340.833649,276.259430 338.672668,280.524506 339.311737,287.337891 
	C340.738403,302.548920 339.279633,317.643585 334.519897,332.177887 
	C318.648651,380.642517 285.049469,409.506256 235.626068,420.295715 
	C201.910797,427.655914 170.766678,419.967987 142.987762,400.748688 
	C108.591385,376.950928 90.789093,343.329590 89.673637,301.269470 
	C89.393867,290.720093 89.565254,290.731873 78.863358,289.785370 
	C65.022964,288.561279 51.230988,289.369568 37.467609,290.848053 
	C30.515270,291.594879 27.604872,289.976257 26.782404,284.424164 
	C25.598314,276.431000 28.426781,271.292908 35.092167,270.639679 
	C50.516121,269.128021 66.017654,269.090118 81.502632,268.772583 
	C92.967697,268.537415 90.977478,270.147400 94.592720,259.397827 
	C108.634949,217.644653 136.924866,190.539734 178.774139,177.434113 
	C232.545456,160.594955 293.673279,185.582047 323.270203,234.118698 
	C327.445892,240.966507 330.375183,248.454178 332.979126,255.999069 
	C334.203827,259.547546 335.562225,260.037872 338.714752,258.435883 
	C350.427948,252.483582 362.869629,248.897705 375.975861,247.954117 
	C386.381287,247.204956 396.548828,249.016037 406.981415,251.729065 
M530.867371,399.636475 
	C536.439026,400.633392 542.033264,401.585938 547.700195,401.609253 
	C564.996887,401.680481 581.218140,397.426819 596.724182,389.774902 
	C643.688110,366.599243 666.829285,318.481049 658.237122,267.676239 
	C650.756775,223.445343 621.974792,196.342285 580.636963,183.470200 
	C533.031677,168.646469 485.892029,187.820663 458.007019,225.535934 
	C442.906769,245.959396 437.470306,269.576721 438.209229,294.764465 
	C439.078125,324.383759 450.858154,349.317780 471.644104,369.863342 
	C487.801178,385.833557 507.701477,395.254517 530.867371,399.636475 
M258.919128,197.567139 
	C236.345459,187.781998 213.139893,185.501511 189.110565,191.239227 
	C133.153717,204.600632 96.297577,260.108063 106.646461,316.647156 
	C113.143494,352.142334 132.994705,378.075348 165.057388,394.918793 
	C205.996643,416.425354 254.656891,408.355286 288.498108,377.526886 
	C313.996338,354.298737 325.606842,324.746368 323.514832,290.254150 
	C322.360840,271.228180 317.257080,253.234360 306.517426,237.152542 
	C294.712524,219.475632 278.680084,206.871017 258.919128,197.567139 
z"/>
<path fill="#000000" opacity="1.000000" stroke="none" 
	d="
M190.214417,525.760376 
	C183.603485,518.819275 179.780304,510.348877 174.244904,503.067261 
	C171.850830,499.917938 174.204498,495.882568 178.387146,495.716827 
	C182.707977,495.545593 187.046600,495.895569 191.376236,495.862000 
	C219.968323,495.640442 244.504501,484.704926 266.280579,466.958252 
	C275.462189,459.475525 283.353302,450.691437 290.545410,441.196106 
	C296.342133,433.543152 299.601044,425.008606 301.989319,415.938751 
	C302.792664,412.887787 303.956146,410.017273 308.044250,410.951355 
	C311.925629,411.838226 314.239532,413.894470 313.606567,418.350464 
	C310.383820,441.037750 320.740631,454.562897 339.339020,464.486023 
	C370.305176,481.007874 410.824219,477.222351 437.314728,450.662415 
	C445.548218,442.407349 450.726715,432.471069 450.766785,420.412689 
	C450.768463,419.912842 450.794586,419.412933 450.790527,418.913208 
	C450.760132,415.165314 452.594879,413.015381 456.288086,412.371613 
	C459.874847,411.746460 460.910828,414.390320 461.919037,416.849518 
	C465.459137,425.484650 468.993744,434.119843 474.114075,441.979889 
	C493.542847,471.804382 520.802734,489.262878 556.227173,493.513397 
	C562.152344,494.224365 568.194702,493.632080 573.936584,491.523285 
	C576.184753,490.697601 578.466187,490.367554 580.750488,491.353058 
	C583.814270,492.674835 584.965210,494.896454 582.752747,497.649963 
	C572.151001,510.844574 564.212708,526.011414 551.279602,537.521118 
	C501.561615,581.767334 430.740234,582.672119 383.176361,530.770935 
	C379.932190,527.230957 377.962128,522.646484 373.827850,519.351440 
	C369.252136,522.091187 365.510223,525.877991 361.587677,529.366516 
	C341.370605,547.346313 317.658783,557.159668 290.932007,560.290771 
	C266.344543,563.171204 242.759537,560.201782 220.491791,548.928650 
	C209.072144,543.147461 199.078949,535.477478 190.214417,525.760376 
M559.459717,513.947021 
	C561.410095,510.798615 563.360474,507.650238 565.803284,503.706909 
	C542.463684,503.906769 522.156494,497.212158 503.425323,485.403412 
	C484.709076,473.604095 471.093994,457.102905 460.014099,436.781342 
	C458.403839,442.927673 456.210541,447.346619 453.356934,451.447876 
	C441.097992,469.066833 423.922668,479.601959 403.726440,485.605957 
	C398.205750,487.247192 390.874390,486.334106 387.208527,489.689789 
	C383.500153,493.084351 383.513245,500.394958 381.477875,505.833618 
	C380.547546,508.319519 380.647858,510.180298 382.070038,512.324097 
	C398.672607,537.351501 421.660492,553.572144 451.189117,558.324768 
	C495.538757,565.462585 530.998413,548.629089 559.459717,513.947021 
M274.927155,472.455292 
	C250.381821,494.315125 221.381958,505.153900 188.862503,506.227875 
	C188.717117,509.242096 189.858688,510.726746 190.974274,512.142822 
	C204.844955,529.748840 222.748047,541.117310 244.334488,547.012024 
	C265.650330,552.832886 286.941223,551.964172 308.004242,546.463745 
	C331.261902,540.390259 351.558350,529.059509 366.594543,509.705322 
	C371.135406,503.860382 373.724121,497.181854 373.895660,489.529572 
	C341.707733,485.895874 315.141327,474.531067 301.593964,443.132599 
	C296.646179,447.559235 293.655060,453.469543 289.258179,458.247498 
	C284.856598,463.030548 280.425964,467.775116 274.927155,472.455292 
z"/>
<path fill="#000000" opacity="1.000000" stroke="none" 
	d="
M470.399628,71.475555 
	C440.213318,76.137527 411.005280,83.855049 381.004333,86.994888 
	C363.187317,88.859589 345.441132,87.859131 327.682068,85.876602 
	C305.036194,83.348526 282.748047,78.283623 260.010834,76.476074 
	C220.148788,73.307144 184.986771,84.484215 154.911469,111.075760 
	C148.428513,116.807777 141.974808,122.573235 135.454575,128.262466 
	C133.870712,129.644470 132.090698,131.676941 129.821823,129.960938 
	C127.969643,128.560074 128.863922,126.326851 129.304230,124.369453 
	C129.840210,121.986671 131.248199,120.182297 132.866623,118.462822 
	C155.762604,94.137222 182.486221,76.222809 215.657715,69.195717 
	C232.908844,65.541229 250.288055,65.425545 267.789520,67.233299 
	C289.963898,69.523735 311.782837,74.285408 333.951996,76.516899 
	C358.119568,78.949539 382.158813,77.622131 406.033142,73.290611 
	C428.270294,69.256134 450.362671,64.177788 472.736786,61.193001 
	C525.969910,54.091515 574.040649,65.371613 613.667542,103.852165 
	C614.741394,104.894951 615.674683,106.080841 616.718079,107.156868 
	C618.511719,109.006767 618.894226,110.890663 616.845703,112.777260 
	C614.917542,114.553070 612.848206,116.062248 610.306885,113.806595 
	C606.195923,110.157738 602.214050,106.360474 598.043762,102.781967 
	C580.653259,87.859146 560.816711,77.345917 538.411255,72.816841 
	C517.281128,68.545563 495.789215,67.814819 474.321014,71.086441 
	C473.169861,71.261864 471.999695,71.312416 470.399628,71.475555 
z"/>
<path fill="#000000" opacity="1.000000" stroke="none" 
	d="
M621.366211,143.277954 
	C618.674072,144.425583 617.277832,142.547806 615.766602,141.449951 
	C586.422119,120.132652 553.036133,111.529716 517.375427,110.360779 
	C490.444641,109.478004 463.983398,113.539566 437.661102,118.719933 
	C436.037415,119.039490 434.366852,119.225914 432.713104,119.265465 
	C429.492523,119.342514 427.176392,118.032478 426.741455,114.580612 
	C426.296265,111.047859 428.630829,109.937576 431.529388,109.483223 
	C444.158295,107.503540 456.773926,105.431145 469.423676,103.593987 
	C497.280365,99.548271 525.096497,99.577560 552.852112,104.661499 
	C577.794434,109.230141 600.601257,118.813171 621.243591,133.536179 
	C626.375854,137.196716 626.417969,138.566559 621.366211,143.277954 
z"/>
<path fill="#000000" opacity="1.000000" stroke="none" 
	d="
M242.000992,106.649231 
	C262.869293,106.186699 283.020264,107.899712 302.863281,112.689880 
	C303.670563,112.884758 304.500061,113.009880 305.285095,113.270348 
	C307.710724,114.075127 310.360870,114.922821 309.707275,118.240601 
	C309.023529,121.711250 306.368347,122.596069 303.219696,122.098076 
	C296.494080,121.034355 289.809601,119.689392 283.067291,118.755470 
	C233.345551,111.868263 185.820053,116.938065 142.603333,144.935181 
	C137.299957,148.370880 132.118744,152.013412 127.053413,155.791382 
	C124.100876,157.993530 121.421410,158.869324 118.924416,155.542908 
	C116.312813,152.063843 119.539238,150.354324 121.562935,148.701233 
	C142.755630,131.389572 166.594681,119.312828 193.179535,112.670204 
	C209.052322,108.704155 225.100937,106.305557 242.000992,106.649231 
z"/>
<path fill="#000000" opacity="1.000000" stroke="none" 
	d="
M512.973633,307.973389 
	C510.323334,305.078400 508.601288,302.069122 507.807495,298.581177 
	C506.973297,294.915710 508.735718,292.571777 511.766541,290.802704 
	C514.903748,288.971527 516.282227,291.401947 517.942688,293.192627 
	C523.114746,298.770142 527.683777,304.684998 536.254883,306.008240 
	C543.834045,307.178345 549.613831,304.881927 554.984497,300.226440 
	C557.120178,298.375183 559.006348,296.239105 561.093811,294.328491 
	C563.770752,291.878357 566.821106,290.571259 570.082886,293.049622 
	C573.484192,295.633942 572.623962,299.121307 570.838379,302.050140 
	C564.402039,312.607422 554.647644,318.022552 542.527710,319.298859 
	C530.950195,320.518066 521.313293,316.364380 512.973633,307.973389 
z"/>
<path fill="#000000" opacity="1.000000" stroke="none" 
	d="
M217.542267,320.804962 
	C210.815094,318.694244 205.269135,315.498718 201.044876,310.242706 
	C199.459015,308.269531 198.263535,306.127563 197.600571,303.660675 
	C196.594406,299.916718 197.519302,296.992767 201.209244,295.455872 
	C204.895370,293.920502 207.926193,294.699219 210.227051,298.275848 
	C218.670990,311.401855 230.918808,312.264252 241.457291,300.631897 
	C243.007736,298.920532 244.698105,297.186951 246.658920,296.033417 
	C249.216843,294.528625 252.118820,294.279449 254.559097,296.520599 
	C257.024689,298.785034 256.778107,301.435242 255.508713,304.291748 
	C250.549423,315.451447 235.197052,323.780640 222.828033,321.910309 
	C221.183350,321.661621 219.560577,321.267883 217.542267,320.804962 
z"/>
</svg>